# xmcd
#
# Track frame offsets: 
#        150
#        11842
#        24676
#        40140
#        54786
#
# Disc length: 1025 seconds
#
# Revision: 0
# Processed by: cddbd v1.5.2PL0 Copyright (c) Steve Scherf et al.
# Submitted via: ExactAudioCopy v0.95a5
#
DISCID=3403ff05
DTITLE=Dwight and Nicole - Dwight and Nicole
DYEAR=2006
DGENRE=R&B
TTITLE0=Makes Me Lonely
TTITLE1=Round In Love
TTITLE2=Johnny Gets High
TTITLE3=Everywhere I Go
TTITLE4=Move Right
EXTD=
EXTT0=
EXTT1=
EXTT2=
EXTT3=
EXTT4=
PLAYORDER=
